<?xml version="1.0" encoding="UTF-8"?>
<svg version="1.1" xmlns="http://www.w3.org/2000/svg" width="512" height="512">
<path d="M0 0 C1.30112671 -0.00706559 2.60225342 -0.01413118 3.94280821 -0.02141088 C5.37461983 -0.01915983 6.80643116 -0.01671337 8.23824215 -0.01409245 C9.76873423 -0.01854745 11.29922401 -0.02386236 12.82971042 -0.02996117 C17.02826969 -0.04412042 21.22675485 -0.04580485 25.42533457 -0.04536426 C29.95655285 -0.04701432 34.48774076 -0.06008447 39.01894283 -0.07155704 C48.92411069 -0.09439253 58.8292571 -0.10232625 68.73444772 -0.10738349 C74.92257426 -0.1106425 81.1106946 -0.11716627 87.29881763 -0.12438488 C104.44120648 -0.14394971 121.58358956 -0.16035434 138.7259903 -0.16326141 C139.82267397 -0.16344898 140.91935763 -0.16363655 142.04927414 -0.16382981 C144.27240622 -0.16419605 146.4955383 -0.16455975 148.71867038 -0.16492092 C150.37395998 -0.16519514 150.37395998 -0.16519514 152.06268978 -0.16547489 C153.72000654 -0.16574572 153.72000654 -0.16574572 155.41080444 -0.16602201 C173.30676732 -0.16956233 191.20260977 -0.19657637 209.0985309 -0.23397278 C227.48412831 -0.27208408 245.86966602 -0.2914191 264.2553038 -0.29172093 C274.57325024 -0.29230489 284.89105304 -0.3007578 295.20896244 -0.32971859 C303.99631366 -0.35427032 312.78346886 -0.36148984 321.57084513 -0.34647106 C326.0506361 -0.33931743 330.53004031 -0.34009253 335.00978756 -0.36288166 C339.1190258 -0.38358478 343.22758274 -0.38076676 347.33681452 -0.36000682 C348.81531544 -0.35653341 350.29386668 -0.36132977 351.77230174 -0.37571125 C365.74254321 -0.50273742 378.01755833 2.36998025 388.3681097 12.26006222 C389.06549252 12.91748409 389.76287533 13.57490597 390.48139095 14.25224972 C398.47247493 22.46907053 403.48383302 32.98457922 403.50233078 44.46871948 C403.50678862 45.75178956 403.51124647 47.03485964 403.5158394 48.35681063 C403.5157501 49.78379477 403.51556025 51.21077891 403.51528072 52.63776302 C403.51858019 54.15130312 403.52230594 55.66484234 403.5264222 57.17838043 C403.53644097 61.34388678 403.5401588 65.50937872 403.54281151 69.67489541 C403.54671495 74.16519955 403.5562933 78.65549228 403.56502438 83.14578915 C403.58478812 93.99335878 403.59485509 104.84092934 403.60375217 115.68851247 C403.6081354 120.79708426 403.61350213 125.905655 403.61874104 131.01422596 C403.63575357 147.9969416 403.65024753 164.9796566 403.65748978 181.96237946 C403.65939967 186.36963114 403.66132 190.77688282 403.66327572 195.18413448 C403.66375946 196.2795333 403.6642432 197.37493211 403.6647416 198.50352483 C403.6730411 216.24648673 403.69837657 233.98938119 403.7308564 251.73231364 C403.76393229 269.94942466 403.78193904 288.16650141 403.78513402 306.38364261 C403.78729867 316.61153529 403.79604075 326.83932963 403.82159519 337.06719303 C403.84330945 345.7781891 403.85134904 354.48906296 403.84162841 363.20008302 C403.83708577 367.64297873 403.83896783 372.08562232 403.85838985 376.52848339 C403.87603701 380.60059029 403.87501139 384.67226144 403.85949256 388.74437308 C403.85711883 390.21281629 403.86142787 391.6812898 403.87332121 393.14968676 C403.98645646 408.047787 399.92625211 420.6484484 389.4931097 431.57256222 C378.01246018 442.33837885 365.31097556 444.86988855 349.88324642 444.76799679 C348.34701034 444.77261433 346.8107787 444.77897295 345.27455616 444.78690577 C341.08332815 444.80350515 336.89246745 444.79539587 332.70123863 444.78296089 C328.16945583 444.77387399 323.63773418 444.78789811 319.10596371 444.79888058 C310.24016083 444.81663166 301.3744937 444.81284104 292.50868559 444.80123001 C285.30082527 444.79218252 278.09300289 444.79097738 270.88513851 444.79532528 C269.34412277 444.79624468 269.34412277 444.79624468 267.7719754 444.79718265 C265.68469857 444.7984616 263.59742175 444.79975845 261.51014495 444.80107301 C241.95517844 444.81246882 222.40028705 444.79938079 202.84533286 444.77787155 C186.08010108 444.76000149 169.31498011 444.76310587 152.54975033 444.78154659 C133.06294399 444.80297096 113.57620341 444.81137028 94.08938694 444.79909754 C92.0099516 444.79782339 89.93051625 444.79656591 87.85108089 444.79532528 C86.31654996 444.79439963 86.31654996 444.79439963 84.7510184 444.79345527 C77.55498634 444.79000708 70.35899612 444.79581928 63.16297054 444.80524349 C54.38886241 444.81648225 45.61489735 444.81338399 36.84080553 444.79212052 C32.36736684 444.78163536 27.89416637 444.77744487 23.42072964 444.79071712 C19.31987716 444.80269961 15.2194821 444.79598287 11.1186707 444.77480692 C9.64103749 444.77036552 8.16336506 444.77255127 6.6857574 444.78231007 C-9.20808966 444.87916845 -20.70636545 440.77999665 -32.3818903 429.94756222 C-44.79344912 416.83346233 -45.78658825 401.16199845 -45.76560307 384.01549435 C-45.76747308 382.56521189 -45.76977454 381.11492993 -45.77246839 379.66464877 C-45.77856928 375.69253116 -45.77845481 371.72043465 -45.77727401 367.74831343 C-45.77706957 363.45915594 -45.7825929 359.17000514 -45.78733158 354.88085079 C-45.79562932 346.48244281 -45.79838603 338.08404185 -45.79894396 329.68563011 C-45.79941954 322.85716577 -45.80147638 316.02870374 -45.80464458 309.20024014 C-45.81344879 289.82948211 -45.81806433 270.45872961 -45.81731411 251.08796957 C-45.81727415 250.04422304 -45.8172342 249.0004765 -45.81719303 247.92510128 C-45.81715215 246.88007662 -45.81711127 245.83505196 -45.81706915 244.75835988 C-45.81666275 227.82466639 -45.82623131 210.89099514 -45.8403314 193.95730808 C-45.85470349 176.55932437 -45.86160112 159.16135149 -45.86073762 141.76336169 C-45.86040594 131.99998679 -45.86314046 122.2366352 -45.87391567 112.47326565 C-45.88303162 104.16023563 -45.88518693 95.84723951 -45.87840625 87.53420666 C-45.87514657 83.29578301 -45.87506437 79.05742434 -45.8837595 74.81900692 C-45.89164988 70.9327704 -45.8901673 67.04665011 -45.88147537 63.16041633 C-45.87994595 61.76071987 -45.8817353 60.36101463 -45.88733544 58.96132854 C-45.95493862 40.85351263 -43.43930259 26.38888454 -30.5303278 13.09599972 C-21.98513368 5.03392612 -11.90899695 0.02074792 0 0 Z " fill="#21CEB2" transform="translate(76.63189029693604,33.7399377822876)"/>
<path d="M0 0 C1.30112671 -0.00706559 2.60225342 -0.01413118 3.94280821 -0.02141088 C5.37461983 -0.01915983 6.80643116 -0.01671337 8.23824215 -0.01409245 C9.76873423 -0.01854745 11.29922401 -0.02386236 12.82971042 -0.02996117 C17.02826969 -0.04412042 21.22675485 -0.04580485 25.42533457 -0.04536426 C29.95655285 -0.04701432 34.48774076 -0.06008447 39.01894283 -0.07155704 C48.92411069 -0.09439253 58.8292571 -0.10232625 68.73444772 -0.10738349 C74.92257426 -0.1106425 81.1106946 -0.11716627 87.29881763 -0.12438488 C104.44120648 -0.14394971 121.58358956 -0.16035434 138.7259903 -0.16326141 C139.82267397 -0.16344898 140.91935763 -0.16363655 142.04927414 -0.16382981 C144.27240622 -0.16419605 146.4955383 -0.16455975 148.71867038 -0.16492092 C150.37395998 -0.16519514 150.37395998 -0.16519514 152.06268978 -0.16547489 C153.72000654 -0.16574572 153.72000654 -0.16574572 155.41080444 -0.16602201 C173.30676732 -0.16956233 191.20260977 -0.19657637 209.0985309 -0.23397278 C227.48412831 -0.27208408 245.86966602 -0.2914191 264.2553038 -0.29172093 C274.57325024 -0.29230489 284.89105304 -0.3007578 295.20896244 -0.32971859 C303.99631366 -0.35427032 312.78346886 -0.36148984 321.57084513 -0.34647106 C326.0506361 -0.33931743 330.53004031 -0.34009253 335.00978756 -0.36288166 C339.1190258 -0.38358478 343.22758274 -0.38076676 347.33681452 -0.36000682 C348.81531544 -0.35653341 350.29386668 -0.36132977 351.77230174 -0.37571125 C365.74254321 -0.50273742 378.01755833 2.36998025 388.3681097 12.26006222 C389.06549252 12.91748409 389.76287533 13.57490597 390.48139095 14.25224972 C398.47247493 22.46907053 403.48383302 32.98457922 403.50233078 44.46871948 C403.50678862 45.75178956 403.51124647 47.03485964 403.5158394 48.35681063 C403.5157501 49.78379477 403.51556025 51.21077891 403.51528072 52.63776302 C403.51858019 54.15130312 403.52230594 55.66484234 403.5264222 57.17838043 C403.53644097 61.34388678 403.5401588 65.50937872 403.54281151 69.67489541 C403.54671495 74.16519955 403.5562933 78.65549228 403.56502438 83.14578915 C403.58478812 93.99335878 403.59485509 104.84092934 403.60375217 115.68851247 C403.6081354 120.79708426 403.61350213 125.905655 403.61874104 131.01422596 C403.63575357 147.9969416 403.65024753 164.9796566 403.65748978 181.96237946 C403.65939967 186.36963114 403.66132 190.77688282 403.66327572 195.18413448 C403.66375946 196.2795333 403.6642432 197.37493211 403.6647416 198.50352483 C403.6730411 216.24648673 403.69837657 233.98938119 403.7308564 251.73231364 C403.76393229 269.94942466 403.78193904 288.16650141 403.78513402 306.38364261 C403.78729867 316.61153529 403.79604075 326.83932963 403.82159519 337.06719303 C403.84330945 345.7781891 403.85134904 354.48906296 403.84162841 363.20008302 C403.83708577 367.64297873 403.83896783 372.08562232 403.85838985 376.52848339 C403.87603701 380.60059029 403.87501139 384.67226144 403.85949256 388.74437308 C403.85711883 390.21281629 403.86142787 391.6812898 403.87332121 393.14968676 C403.98645646 408.047787 399.92625211 420.6484484 389.4931097 431.57256222 C378.01246018 442.33837885 365.31097556 444.86988855 349.88324642 444.76799679 C348.34701034 444.77261433 346.8107787 444.77897295 345.27455616 444.78690577 C341.08332815 444.80350515 336.89246745 444.79539587 332.70123863 444.78296089 C328.16945583 444.77387399 323.63773418 444.78789811 319.10596371 444.79888058 C310.24016083 444.81663166 301.3744937 444.81284104 292.50868559 444.80123001 C285.30082527 444.79218252 278.09300289 444.79097738 270.88513851 444.79532528 C269.34412277 444.79624468 269.34412277 444.79624468 267.7719754 444.79718265 C265.68469857 444.7984616 263.59742175 444.79975845 261.51014495 444.80107301 C241.95517844 444.81246882 222.40028705 444.79938079 202.84533286 444.77787155 C186.08010108 444.76000149 169.31498011 444.76310587 152.54975033 444.78154659 C133.06294399 444.80297096 113.57620341 444.81137028 94.08938694 444.79909754 C92.0099516 444.79782339 89.93051625 444.79656591 87.85108089 444.79532528 C86.31654996 444.79439963 86.31654996 444.79439963 84.7510184 444.79345527 C77.55498634 444.79000708 70.35899612 444.79581928 63.16297054 444.80524349 C54.38886241 444.81648225 45.61489735 444.81338399 36.84080553 444.79212052 C32.36736684 444.78163536 27.89416637 444.77744487 23.42072964 444.79071712 C19.31987716 444.80269961 15.2194821 444.79598287 11.1186707 444.77480692 C9.64103749 444.77036552 8.16336506 444.77255127 6.6857574 444.78231007 C-9.20808966 444.87916845 -20.70636545 440.77999665 -32.3818903 429.94756222 C-44.79344912 416.83346233 -45.78658825 401.16199845 -45.76560307 384.01549435 C-45.76747308 382.56521189 -45.76977454 381.11492993 -45.77246839 379.66464877 C-45.77856928 375.69253116 -45.77845481 371.72043465 -45.77727401 367.74831343 C-45.77706957 363.45915594 -45.7825929 359.17000514 -45.78733158 354.88085079 C-45.79562932 346.48244281 -45.79838603 338.08404185 -45.79894396 329.68563011 C-45.79941954 322.85716577 -45.80147638 316.02870374 -45.80464458 309.20024014 C-45.81344879 289.82948211 -45.81806433 270.45872961 -45.81731411 251.08796957 C-45.81727415 250.04422304 -45.8172342 249.0004765 -45.81719303 247.92510128 C-45.81715215 246.88007662 -45.81711127 245.83505196 -45.81706915 244.75835988 C-45.81666275 227.82466639 -45.82623131 210.89099514 -45.8403314 193.95730808 C-45.85470349 176.55932437 -45.86160112 159.16135149 -45.86073762 141.76336169 C-45.86040594 131.99998679 -45.86314046 122.2366352 -45.87391567 112.47326565 C-45.88303162 104.16023563 -45.88518693 95.84723951 -45.87840625 87.53420666 C-45.87514657 83.29578301 -45.87506437 79.05742434 -45.8837595 74.81900692 C-45.89164988 70.9327704 -45.8901673 67.04665011 -45.88147537 63.16041633 C-45.87994595 61.76071987 -45.8817353 60.36101463 -45.88733544 58.96132854 C-45.95493862 40.85351263 -43.43930259 26.38888454 -30.5303278 13.09599972 C-21.98513368 5.03392612 -11.90899695 0.02074792 0 0 Z M-12.6318903 101.26006222 C-12.7143903 150.63631222 -12.7968903 200.01256222 -12.8818903 250.88506222 C-12.91830631 266.49254757 -12.95472233 282.10003292 -12.99224186 298.18047237 C-13.00561718 312.13535037 -13.00561718 312.13535037 -13.0136652 326.0902319 C-13.01740129 332.32002936 -13.03209891 338.54968397 -13.05419254 344.77944088 C-13.07962529 351.96132444 -13.09124082 359.14307059 -13.0856701 366.32499953 C-13.08325674 370.00017824 -13.0871258 373.67504971 -13.10875082 377.35017228 C-13.131754 381.28335686 -13.12388246 385.21613033 -13.11290836 389.14937496 C-13.12455902 390.29885302 -13.13620968 391.44833107 -13.14821339 392.63264179 C-13.10154438 398.82878173 -12.82373436 402.57003976 -8.6318903 407.26006222 C-4.08743983 411.26350668 -1.77364675 412.38463476 4.23531628 412.39148998 C5.49310398 412.39533113 6.75089169 412.39917227 8.04679418 412.40312982 C9.45559618 412.40234948 10.86439814 412.40147067 12.27320004 412.40050411 C13.75970371 412.40308625 15.24620669 412.40609898 16.73270869 412.40950751 C20.83257793 412.4175987 24.93242968 412.41936826 29.03230596 412.42010498 C33.4482462 412.42195188 37.86417729 412.4294974 42.28011227 412.4362402 C51.94331041 412.44983939 61.60650442 412.45585079 71.26971054 412.46025085 C77.30045377 412.46301077 83.33119538 412.46724768 89.36193752 412.47175503 C106.05034567 412.48395009 122.73875252 412.49424872 139.42716503 412.49763012 C140.49589308 412.49784969 141.56462113 412.49806925 142.66573487 412.49829547 C144.27272577 412.49862289 144.27272577 412.49862289 145.91218114 412.49895692 C148.0832003 412.49940039 150.25421945 412.49984695 152.42523861 412.50029659 C153.50214568 412.50051802 154.57905274 412.50073945 155.68859336 412.50096759 C173.14082027 412.50491612 190.59300545 412.52237075 208.04521623 412.54565611 C225.95148669 412.56935496 243.85773619 412.58183131 261.76402259 412.58299804 C271.82241541 412.58391566 281.88075387 412.5896898 291.93913174 412.60781765 C300.50391531 412.6231989 309.06862771 412.62835083 317.63342246 412.62007955 C322.0047585 412.61616593 326.37595113 412.61713718 330.74726963 412.63113689 C334.74820222 412.6438334 338.74888304 412.64271591 342.74981508 412.63054618 C344.19803789 412.62858177 345.64627829 412.63170183 347.09447637 412.64039055 C349.06213468 412.65144939 351.02987574 412.64222327 352.99753857 412.63199902 C354.63744334 412.63289465 354.63744334 412.63289465 356.3104775 412.63380837 C361.10125983 412.04821261 364.35835628 410.35396176 367.6181097 406.82256222 C370.40505051 402.7416846 371.61838666 400.09074712 371.61420536 395.09827709 C371.6181871 394.04844898 371.62216885 392.99862087 371.62627125 391.91697979 C371.62044592 390.76556625 371.61462059 389.61415272 371.60861874 388.42784786 C371.61033077 387.20640575 371.61204281 385.98496365 371.61380672 384.72650814 C371.61654473 381.3278002 371.61025857 377.9293215 371.60025516 374.53064114 C371.5915336 370.81249226 371.59444361 367.09434935 371.595891 363.37619305 C371.59695518 356.15571291 371.58771215 348.93528244 371.57488834 341.71481507 C371.56050117 333.36449538 371.55889955 325.01420563 371.55731869 316.66387081 C371.54681348 294.6125934 371.51889132 272.56132706 371.4931097 250.51006222 C371.4518597 201.25756222 371.4106097 152.00506222 371.3681097 101.26006222 C244.6481097 101.26006222 117.9281097 101.26006222 -12.6318903 101.26006222 Z " fill="#2F465C" transform="translate(76.63189029693604,33.7399377822876)"/>
<path d="M0 0 C1.88668156 -0.00576172 1.88668156 -0.00576172 3.8114779 -0.01163983 C5.22027991 -0.01085949 6.62908187 -0.00998069 8.03788376 -0.00901413 C9.52438743 -0.01159626 11.01089041 -0.014609 12.49739242 -0.01801753 C16.59726165 -0.02610872 20.6971134 -0.02787828 24.79698968 -0.028615 C29.21292992 -0.0304619 33.62886101 -0.03800741 38.04479599 -0.04475021 C47.70799414 -0.0583494 57.37118814 -0.06436081 67.03439426 -0.06876087 C73.06513749 -0.07152079 79.09587911 -0.0757577 85.12662125 -0.08026505 C101.81502939 -0.09246011 118.50343625 -0.10275874 135.19184875 -0.10614014 C136.2605768 -0.1063597 137.32930485 -0.10657927 138.4304186 -0.10680549 C139.50174586 -0.10702377 140.57307313 -0.10724204 141.67686486 -0.10746694 C143.84788402 -0.10791041 146.01890318 -0.10835697 148.18992233 -0.10880661 C149.80528293 -0.10913875 149.80528293 -0.10913875 151.45327708 -0.10947761 C168.905504 -0.11342614 186.35768917 -0.13088077 203.80989996 -0.15416613 C221.71617041 -0.17786498 239.62241991 -0.19034133 257.52870631 -0.19150805 C267.58709914 -0.19242568 277.64543759 -0.19819982 287.70381546 -0.21632767 C296.26859903 -0.23170892 304.83331144 -0.23686084 313.39810619 -0.22858956 C317.76944222 -0.22467595 322.14063486 -0.2256472 326.51195335 -0.23964691 C330.51288595 -0.25234342 334.51356677 -0.25122593 338.5144988 -0.2390562 C339.96272162 -0.23709179 341.41096201 -0.24021185 342.8591601 -0.24890056 C344.82681841 -0.25995941 346.79455947 -0.25073329 348.76222229 -0.24050903 C349.85549214 -0.24110612 350.94876198 -0.24170321 352.07516122 -0.24231839 C356.28591864 0.2723787 359.66391965 1.76024631 362.77732468 4.66658401 C371.39981374 15.94214663 367.13279343 14.93518735 367.13279343 37.13142776 C240.41279343 37.13142776 113.69279343 37.13142776 -16.86720657 37.13142776 C-16.86720657 11.13142776 -16.86720657 11.13142776 -12.86720657 5.13142776 C-8.32275611 1.12798331 -6.00896303 0.00685522 0 0 Z " fill="#FEFEFE" transform="translate(80.86720657348633,65.86857223510742)"/>
<path d="M0 0 C1.03485039 -0.00384115 2.06970078 -0.00768229 3.13591027 -0.01163983 C4.85445014 -0.01034011 4.85445014 -0.01034011 6.60770798 -0.00901413 C7.81799848 -0.01198525 9.02828899 -0.01495637 10.27525496 -0.01801753 C13.64543563 -0.02521355 17.01556534 -0.02787807 20.38575006 -0.028615 C24.01640793 -0.03046256 27.64705468 -0.03800844 31.27770615 -0.04475021 C39.22195057 -0.05834691 47.16618995 -0.06436047 55.11044407 -0.06876087 C60.06912531 -0.07152131 65.0278046 -0.07575833 69.98648453 -0.08026505 C83.71021146 -0.09245998 97.43393683 -0.10275851 111.15766907 -0.10614014 C112.03646999 -0.1063597 112.91527092 -0.10657927 113.82070218 -0.10680549 C114.70163278 -0.10702377 115.58256337 -0.10724204 116.49018884 -0.10746694 C118.27535391 -0.10791041 120.06051898 -0.10835697 121.84568405 -0.10880661 C122.73119177 -0.10902804 123.61669949 -0.10924947 124.52904078 -0.10947761 C138.87733918 -0.11342558 153.22558679 -0.13087855 167.57386556 -0.15416613 C182.29802146 -0.17787123 197.02215187 -0.19034162 211.74632716 -0.19150805 C220.01620164 -0.19242535 228.28600997 -0.19819114 236.55586624 -0.21632767 C243.59818557 -0.23171738 250.64041832 -0.23685586 257.68275127 -0.22858956 C261.27639659 -0.22467888 264.8698675 -0.2256328 268.46349144 -0.23964691 C272.35872582 -0.25469835 276.25371382 -0.24653153 280.14896774 -0.23606491 C281.2857381 -0.24412132 282.42250845 -0.25217772 283.5937264 -0.26047826 C289.9761912 -0.22024082 294.88482914 0.09993592 299.7768364 4.66658401 C303.96595066 10.14465652 304.75382917 13.31768295 304.13230515 20.13142776 C302.30695923 25.40464929 299.52511311 27.92833862 295.13230515 31.13142776 C292.16658746 32.12000033 290.23514175 32.25948607 287.14156246 32.26564884 C286.10472102 32.27010669 285.06787959 32.27456453 283.99961871 32.27915746 C282.85683831 32.2789731 281.71405791 32.27878873 280.5366478 32.27859879 C279.32550287 32.28227547 278.11435794 32.28595216 276.86651164 32.28974026 C273.4985923 32.29886953 270.1307217 32.30347731 266.76279461 32.30612957 C263.13283411 32.31003205 259.50288774 32.31961033 255.87293625 32.32834244 C247.10434237 32.34810702 238.33574733 32.35817242 229.56713673 32.36707023 C225.43917323 32.37145257 221.31121101 32.37681947 217.18324852 32.3820591 C203.46377167 32.39907031 189.74429562 32.41356541 176.02480984 32.42080784 C172.46436881 32.42271777 168.90392779 32.4246381 165.34348679 32.42659378 C164.01607346 32.42731939 164.01607346 32.42731939 162.66184369 32.42805966 C148.32005897 32.43636347 133.97835755 32.46170678 119.63660922 32.49417446 C104.91694206 32.52722647 90.19731727 32.54525486 75.47761279 32.54845208 C67.21108223 32.55061875 58.94467322 32.55939047 50.67817879 32.58491325 C43.63952731 32.60659479 36.6010269 32.61468323 29.56234583 32.60494647 C25.97066595 32.6003945 22.37929792 32.6023396 18.7876606 32.62170792 C14.8946146 32.6425205 11.00200071 32.63237771 7.10891342 32.61917496 C5.97282519 32.6301442 4.83673695 32.64111345 3.6662218 32.6524151 C-2.50268965 32.60174356 -6.19064346 32.28861214 -10.86769485 28.13142776 C-15.16997075 23.36404096 -16.23051988 19.69395482 -16.14894485 13.41267776 C-15.55950097 8.6316329 -12.71948689 5.88181599 -9.24269485 2.81892776 C-5.84110891 0.40201143 -4.12611993 0.00572609 0 0 Z " fill="#2E455C" transform="translate(111.86769485473633,375.8685722351074)"/>
<path d="M0 0 C3.22477796 2.10537228 5.82891371 4.71206792 8.46948242 7.49853516 C10.27572602 9.33648347 12.13801138 11.01889347 14.09375 12.6953125 C18.3130213 16.35705628 22.38421428 20.15633413 26.4375 24 C27.93335778 25.41301027 29.42945617 26.82576585 30.92578125 28.23828125 C31.67037598 28.94162598 32.4149707 29.6449707 33.18212891 30.36962891 C41.03429389 37.77419776 48.9395715 45.12231188 56.875 52.4375 C58.46903872 53.9092061 60.06290678 55.38109683 61.65673828 56.85302734 C62.87004165 57.97185924 64.08468968 59.08923379 65.30029297 60.20556641 C67.30778235 62.05003574 69.31042491 63.89965698 71.3125 65.75 C71.92738281 66.31267578 72.54226563 66.87535156 73.17578125 67.45507812 C85.06706477 78.47658436 85.06706477 78.47658436 85.578125 83.390625 C85.60132813 84.52757812 85.60132813 84.52757812 85.625 85.6875 C85.65078125 86.43515625 85.6765625 87.1828125 85.703125 87.953125 C84.84051826 94.48429032 80.7084645 98.52089924 76.1875 102.875 C75.64802734 103.40931641 75.10855469 103.94363281 74.55273438 104.49414062 C70.96256536 108.01665039 67.22524609 111.33741447 63.42602539 114.6315918 C59.93121001 117.70874325 56.56492742 120.92023066 53.1875 124.125 C48.08797514 128.94488603 42.97843727 133.75131465 37.8125 138.5 C32.97267729 142.95038546 28.16798411 147.43672249 23.375 151.9375 C22.02347628 153.20316641 20.67191414 154.4687918 19.3203125 155.734375 C16.76317699 158.13004674 14.21740269 160.53690344 11.6796875 162.953125 C10.53661864 164.03141996 9.39339773 165.10955377 8.25 166.1875 C7.48816406 166.92129883 7.48816406 166.92129883 6.7109375 167.66992188 C2.4483933 171.66605706 -1.99226123 174.84816559 -8 174.9375 C-13.16084716 174.74571176 -16.79259303 172.82909021 -20.625 169.4375 C-24.25557012 164.55892141 -24.43811022 159.30684734 -23.625 153.4375 C-21.3865412 147.93462211 -18.22958917 144.93908216 -13.69921875 141.1875 C-11.72582109 139.52256186 -9.9268859 137.78474229 -8.125 135.9375 C-5.80568237 133.57252102 -3.42175639 131.35050111 -0.91015625 129.19140625 C3.30793193 125.52346137 7.38184695 121.72081211 11.4375 117.875 C12.92816916 116.46721889 14.41905903 115.05967146 15.91015625 113.65234375 C16.65410645 112.94964355 17.39805664 112.24694336 18.16455078 111.52294922 C26.7967248 103.37892111 35.43197991 95.24143623 44.375 87.4375 C42.81019175 83.51191167 40.31758313 81.34198003 37.1875 78.5625 C36.09821295 77.58546581 35.00970796 76.60755918 33.921875 75.62890625 C33.34501953 75.11215332 32.76816406 74.59540039 32.17382812 74.06298828 C29.05851897 71.24787857 26.00064882 68.37160328 22.9375 65.5 C17.76893242 60.66512102 12.58100437 55.85243334 7.37280273 51.06030273 C4.31803902 48.2448717 1.27955185 45.41312709 -1.74609375 42.56640625 C-2.45258057 41.90181396 -3.15906738 41.23722168 -3.88696289 40.55249023 C-5.25336697 39.26565492 -6.61852529 37.97749498 -7.98217773 36.68774414 C-11.62170056 33.25966512 -15.3178151 29.94713035 -19.17260742 26.76196289 C-22.32732655 23.88511783 -23.43701453 21.00952849 -23.9375 16.82421875 C-24.13321887 12.30433607 -23.95098215 9.15466072 -22.0625 5 C-15.57433613 -1.82089022 -8.72100687 -3.75905468 0 0 Z " fill="#2E455C" transform="translate(330.625,169.5625)"/>
<path d="M0 0 C4.31184755 1.85938407 7.17187821 4.01458536 9.2265625 8.2890625 C10.89008779 13.75790189 10.5171799 18.61919582 8.4765625 23.90625 C5.91509103 27.72645144 2.47468967 30.58061944 -0.984375 33.5703125 C-4.92159243 36.97914766 -8.68049595 40.57570738 -12.4609375 44.15625 C-18.02744577 49.41357544 -23.61626397 54.64329686 -29.25390625 59.82421875 C-34.34690236 64.51079123 -39.38814594 69.2521036 -44.41821289 74.00610352 C-48.90241899 78.22839108 -53.4880393 82.31693836 -58.1484375 86.34375 C-56.36080065 90.21653864 -54.16826529 92.37067755 -50.9609375 95.21875 C-49.87165045 96.19578419 -48.78314546 97.17369082 -47.6953125 98.15234375 C-47.11845703 98.66909668 -46.54160156 99.18584961 -45.94726562 99.71826172 C-42.83195647 102.53337143 -39.77408632 105.40964672 -36.7109375 108.28125 C-31.54312681 113.11542096 -26.35616914 117.92763689 -21.1484375 122.71875 C-18.08058822 125.54598365 -15.02986687 128.39035312 -11.9921875 131.25 C-10.9256897 132.25365601 -10.9256897 132.25365601 -9.83764648 133.27758789 C-8.45810046 134.57731631 -7.07992322 135.87849969 -5.70336914 137.18139648 C-2.80906177 139.90840709 0.08962131 142.57666943 3.17578125 145.0859375 C7.15204038 148.44108754 9.42845954 151.66265879 10.234375 156.76953125 C10.50917383 162.80594549 9.57475408 166.57042746 5.8515625 171.34375 C1.70641522 174.96269983 -2.50988313 176.00865709 -7.953125 175.72265625 C-14.17366238 174.64900478 -18.07958526 170.67608494 -22.24291992 166.28271484 C-24.04916352 164.44476653 -25.91144888 162.76235653 -27.8671875 161.0859375 C-32.08645739 157.42419494 -36.15767728 153.62494095 -40.2109375 149.78125 C-41.70938964 148.36562522 -43.20809228 146.95026555 -44.70703125 145.53515625 C-45.45194824 144.83148926 -46.19686523 144.12782227 -46.96435547 143.40283203 C-50.22353736 140.33018056 -53.49702278 137.27300549 -56.7734375 134.21875 C-57.6869397 133.3671228 -57.6869397 133.3671228 -58.61889648 132.49829102 C-59.84482046 131.35555764 -61.07081307 130.21289787 -62.296875 129.0703125 C-64.1861268 127.30860513 -66.07376208 125.54518131 -67.9609375 123.78125 C-68.90731079 122.89699341 -68.90731079 122.89699341 -69.87280273 121.99487305 C-71.13045741 120.81960808 -72.38778673 119.64399484 -73.64477539 118.46801758 C-76.67009819 115.64137746 -79.70616682 112.82837509 -82.76953125 110.04296875 C-98.65589139 95.58287635 -98.65589139 95.58287635 -99.38671875 89.29296875 C-99.42345703 88.17341797 -99.42345703 88.17341797 -99.4609375 87.03125 C-99.49832031 86.29261719 -99.53570312 85.55398437 -99.57421875 84.79296875 C-98.56600518 78.99342831 -93.93986922 74.8841735 -89.8984375 70.90625 C-88.56039062 69.57787109 -88.56039062 69.57787109 -87.1953125 68.22265625 C-84.29691141 65.43443828 -81.2643534 62.81207909 -78.22802734 60.17602539 C-74.76859619 57.1280058 -71.43113644 53.95348918 -68.0859375 50.78125 C-66.58748536 49.36562522 -65.08878272 47.95026555 -63.58984375 46.53515625 C-62.84492676 45.83148926 -62.10000977 45.12782227 -61.33251953 44.40283203 C-58.07333764 41.33018056 -54.79985222 38.27300549 -51.5234375 35.21875 C-50.91443604 34.65099854 -50.30543457 34.08324707 -49.67797852 33.49829102 C-48.45205454 32.35555764 -47.22606193 31.21289787 -46 30.0703125 C-43.47270187 27.71363366 -40.94836548 25.35379313 -38.42407227 22.99389648 C-36.5516329 21.24508382 -34.67634333 19.49936868 -32.80078125 17.75390625 C-30.36300581 15.48371569 -27.94043264 13.19874428 -25.52734375 10.90234375 C-24.38024915 9.82026923 -23.2331155 8.7382361 -22.0859375 7.65625 C-21.57401855 7.16302246 -21.06209961 6.66979492 -20.53466797 6.16162109 C-14.45320381 0.45637124 -8.2315332 -2.51435923 0 0 Z " fill="#2E455C" transform="translate(195.1484375,168.65625)"/>
</svg>
